# xmcd CD database file
#
# Track frame offsets:
#	182
#	41942
#	61725
#	90045
#	108410
#	125507
#	162355
#	193862
#	231460
#	266167
#	292435
#
# Disc length: 4638 seconds
#
# Revision: 2
# Processed by: cddbd v1.5.1PL0 Copyright (c) Steve Scherf et al.
# Submitted via: CDex 1.50beta9
#
DISCID=a6121c0b
DTITLE=Roy Buchanan - Sweet Dreams - The Anthology (2)
DYEAR=1992
DGENRE=Rock
TTITLE0=Down By The River (Live)
TTITLE1=I'm A Ram (Live)
TTITLE2=I'm Evil (Live)
TTITLE3=Good God Have Mercy
TTITLE4=If Six Were Nine
TTITLE5=Green Onions
TTITLE6=Soul Dressing (Live)
TTITLE7=Hey Joe (Live)
TTITLE8=Fly...Night Bird
TTITLE9=Turn To Stone
TTITLE10=Dual Soliloquy
EXTD=YEAR: 1992
EXTT0=
EXTT1=
EXTT2=
EXTT3=
EXTT4=
EXTT5=
EXTT6=
EXTT7=
EXTT8=
EXTT9=
EXTT10=
PLAYORDER=
